# xmcd
#
# Track frame offsets: 
#        150
#        11750
#        27097
#        44015
#        63487
#        76030
#        91930
#        105047
#        120805
#        133510
#        147717
#        169485
#
# Disc length: 2637 seconds
#
# Revision: 9
# Processed by: cddbd v1.5.2PL0 Copyright (c) Steve Scherf et al.
# Submitted via: ExactAudioCopy v0.99pb3
#
DISCID=940a4b0c
DTITLE=Static-X - Wisconsin Death Trip
DYEAR=1999
DGENRE=Metal
TTITLE0=Push It
TTITLE1=I'm with Stupid
TTITLE2=Bled for Days
TTITLE3=Love Dump
TTITLE4=I Am
TTITLE5=Otsegolation
TTITLE6=Stem
TTITLE7=Sweat of the Bud
TTITLE8=Fix
TTITLE9=Wisconsin Death Trip
TTITLE10=The Trance Is the Motion
TTITLE11=December
EXTD=YEAR: 1999
EXTT0=
EXTT1=
EXTT2=
EXTT3=
EXTT4=
EXTT5=
EXTT6=
EXTT7=
EXTT8=
EXTT9=
EXTT10=
EXTT11=
PLAYORDER=
